<svg width="131" height="46" viewBox="0 0 131 46" fill="none" xmlns="http://www.w3.org/2000/svg">
<path d="M2.2998 46C0.818685 46 0.078125 45.2065 0.078125 43.6196V2.86768C0.078125 1.28076 0.818685 0.487305 2.2998 0.487305H14.1699C21.7871 0.487305 27.0662 1.7251 30.0073 4.20068C32.9696 6.67627 34.4507 10.1886 34.4507 14.7378C34.4507 19.2869 32.9696 22.7993 30.0073 25.2749C27.0662 27.7505 21.7871 28.9883 14.1699 28.9883H9.3457V43.6196C9.3457 45.2065 8.60514 46 7.12402 46H2.2998ZM9.3457 21.2441H14.1382C18.37 21.2441 21.2476 20.7469 22.771 19.7524C24.2944 18.7368 25.0562 17.0653 25.0562 14.7378C25.0562 12.4103 24.2944 10.7493 22.771 9.75488C21.2476 8.73926 18.37 8.23145 14.1382 8.23145H9.3457V21.2441ZM44.4482 46C42.9671 46 42.2266 45.2065 42.2266 43.6196V2.86768C42.2266 1.28076 42.9671 0.487305 44.4482 0.487305H53.6523C54.8796 0.487305 55.7576 1.33366 56.2866 3.02637L64.8877 30.8608C65.2686 32.0669 65.533 33.0614 65.6812 33.8442C65.8293 34.606 65.9562 35.5158 66.062 36.5737H66.2524C66.3582 35.5158 66.4852 34.606 66.6333 33.8442C66.7814 33.0614 67.0459 32.0669 67.4268 30.8608L76.0278 3.02637C76.5568 1.33366 77.4349 0.487305 78.6621 0.487305H87.8662C89.3473 0.487305 90.0879 1.28076 90.0879 2.86768V43.6196C90.0879 45.2065 89.3473 46 87.8662 46H83.042C81.5609 46 80.8203 45.2065 80.8203 43.6196V17.4038C80.8203 16.1343 80.8732 14.8647 80.979 13.5952H80.7568L71.5845 43.4292C71.0555 45.1431 70.1457 46 68.855 46H63.4595C62.1688 46 61.259 45.1431 60.73 43.4292L51.5576 13.5952H51.3354C51.4412 14.8647 51.4941 16.1343 51.4941 17.4038V43.6196C51.4941 45.2065 50.7536 46 49.2725 46H44.4482ZM102.466 46C100.985 46 100.244 45.2065 100.244 43.6196V2.86768C100.244 1.28076 100.985 0.487305 102.466 0.487305H107.607C108.877 0.487305 109.512 1.28076 109.512 2.86768V38.1289H128.015C129.602 38.1289 130.396 38.8166 130.396 40.1919V43.937C130.396 45.3123 129.602 46 128.015 46H102.466Z" fill="#368266"/>
</svg>
